<mxfile host="app.diagrams.net" agent="Mozilla/5.0 (Windows NT 10.0; Win64; x64) AppleWebKit/537.36 (KHTML, like Gecko) Chrome/132.0.0.0 Safari/537.36 OPR/117.0.0.0" version="26.2.2">
  <diagram id="QULv7Dgdr9XEkyJaRrvC" name="Strona-1">
    <mxGraphModel dx="1242" dy="1789" grid="1" gridSize="10" guides="1" tooltips="1" connect="1" arrows="1" fold="1" page="1" pageScale="1" pageWidth="827" pageHeight="1169" math="0" shadow="0">
      <root>
        <mxCell id="0" />
        <mxCell id="1" parent="0" />
        <mxCell id="s9d8jlt8v8IcsFswBV3r-5" value="Pracownik&lt;div&gt;&lt;br&gt;&lt;/div&gt;" style="shape=umlActor;verticalLabelPosition=bottom;verticalAlign=top;html=1;" parent="1" vertex="1">
          <mxGeometry x="300" y="-250" width="30" height="60" as="geometry" />
        </mxCell>
        <mxCell id="s9d8jlt8v8IcsFswBV3r-6" value="Interfejs pracownika" style="shape=umlBoundary;whiteSpace=wrap;html=1;" parent="1" vertex="1">
          <mxGeometry x="400" y="-340" width="102" height="80" as="geometry" />
        </mxCell>
        <mxCell id="s9d8jlt8v8IcsFswBV3r-10" value="Baza danych" style="ellipse;shape=umlEntity;whiteSpace=wrap;html=1;" parent="1" vertex="1">
          <mxGeometry x="390" y="-800" width="80" height="80" as="geometry" />
        </mxCell>
        <mxCell id="s9d8jlt8v8IcsFswBV3r-12" value="Zarejestruj przesyłkę" style="ellipse;shape=umlControl;whiteSpace=wrap;html=1;" parent="1" vertex="1">
          <mxGeometry x="170" y="-480" width="70" height="80" as="geometry" />
        </mxCell>
        <mxCell id="s9d8jlt8v8IcsFswBV3r-18" style="edgeStyle=none;rounded=0;orthogonalLoop=1;jettySize=auto;html=1;exitX=0.75;exitY=0.1;exitDx=0;exitDy=0;exitPerimeter=0;entryX=-0.02;entryY=0.513;entryDx=0;entryDy=0;entryPerimeter=0;" parent="1" source="s9d8jlt8v8IcsFswBV3r-5" target="s9d8jlt8v8IcsFswBV3r-6" edge="1">
          <mxGeometry relative="1" as="geometry" />
        </mxCell>
        <mxCell id="s9d8jlt8v8IcsFswBV3r-25" style="edgeStyle=none;rounded=0;orthogonalLoop=1;jettySize=auto;html=1;exitX=0;exitY=1;exitDx=0;exitDy=0;entryX=0.8;entryY=0.188;entryDx=0;entryDy=0;entryPerimeter=0;" parent="1" source="s9d8jlt8v8IcsFswBV3r-10" target="s9d8jlt8v8IcsFswBV3r-38" edge="1">
          <mxGeometry relative="1" as="geometry">
            <mxPoint x="230" y="-720" as="targetPoint" />
          </mxGeometry>
        </mxCell>
        <mxCell id="s9d8jlt8v8IcsFswBV3r-26" value="Loguj" style="ellipse;shape=umlControl;whiteSpace=wrap;html=1;" parent="1" vertex="1">
          <mxGeometry x="640" y="-570" width="70" height="80" as="geometry" />
        </mxCell>
        <mxCell id="s9d8jlt8v8IcsFswBV3r-27" value="" style="endArrow=classic;html=1;rounded=0;exitX=0.853;exitY=0.063;exitDx=0;exitDy=0;exitPerimeter=0;entryX=0.286;entryY=1;entryDx=0;entryDy=0;entryPerimeter=0;" parent="1" source="s9d8jlt8v8IcsFswBV3r-6" target="s9d8jlt8v8IcsFswBV3r-26" edge="1">
          <mxGeometry width="50" height="50" relative="1" as="geometry">
            <mxPoint x="400" y="-430" as="sourcePoint" />
            <mxPoint x="450" y="-480" as="targetPoint" />
          </mxGeometry>
        </mxCell>
        <mxCell id="s9d8jlt8v8IcsFswBV3r-28" value="" style="endArrow=classic;html=1;rounded=0;entryX=1;entryY=0.5;entryDx=0;entryDy=0;exitX=0.143;exitY=0.25;exitDx=0;exitDy=0;exitPerimeter=0;" parent="1" source="s9d8jlt8v8IcsFswBV3r-26" target="s9d8jlt8v8IcsFswBV3r-10" edge="1">
          <mxGeometry width="50" height="50" relative="1" as="geometry">
            <mxPoint x="400" y="-430" as="sourcePoint" />
            <mxPoint x="450" y="-480" as="targetPoint" />
          </mxGeometry>
        </mxCell>
        <mxCell id="s9d8jlt8v8IcsFswBV3r-38" value="Sprawdź poprawność danych" style="ellipse;shape=umlControl;whiteSpace=wrap;html=1;" parent="1" vertex="1">
          <mxGeometry x="140" y="-630" width="70" height="80" as="geometry" />
        </mxCell>
        <mxCell id="s9d8jlt8v8IcsFswBV3r-39" value="" style="endArrow=classic;html=1;rounded=0;exitX=0.571;exitY=1.013;exitDx=0;exitDy=0;exitPerimeter=0;entryX=0.271;entryY=0.125;entryDx=0;entryDy=0;entryPerimeter=0;" parent="1" source="s9d8jlt8v8IcsFswBV3r-38" target="s9d8jlt8v8IcsFswBV3r-12" edge="1">
          <mxGeometry width="50" height="50" relative="1" as="geometry">
            <mxPoint x="80" y="-480" as="sourcePoint" />
            <mxPoint x="100" y="-340" as="targetPoint" />
          </mxGeometry>
        </mxCell>
        <mxCell id="s9d8jlt8v8IcsFswBV3r-40" value="" style="endArrow=classic;html=1;rounded=0;entryX=0;entryY=0.413;entryDx=0;entryDy=0;entryPerimeter=0;exitX=0.886;exitY=0.913;exitDx=0;exitDy=0;exitPerimeter=0;" parent="1" source="s9d8jlt8v8IcsFswBV3r-12" target="s9d8jlt8v8IcsFswBV3r-6" edge="1">
          <mxGeometry width="50" height="50" relative="1" as="geometry">
            <mxPoint x="280" y="-340" as="sourcePoint" />
            <mxPoint x="440" y="-310" as="targetPoint" />
          </mxGeometry>
        </mxCell>
      </root>
    </mxGraphModel>
  </diagram>
</mxfile>
